<svg width="80" height="80" viewBox="0 0 80 80" fill="none" xmlns="http://www.w3.org/2000/svg">
<path d="M28.9208 38.0973C28.4134 37.5898 27.9061 37.1671 27.3987 36.7443C26.8913 36.3215 26.2993 35.9832 25.7074 35.5604C24.3544 36.9981 22.6632 38.0973 20.7183 38.7738C21.9868 39.1966 23.1706 39.7885 24.2699 40.6343C25.9612 41.9872 27.2297 43.7632 27.9908 45.7926C24.9465 48.9215 23.0016 53.1496 23.0016 57.8006V61.6059C23.0016 63.0436 24.101 64.1428 25.5384 64.1428C26.9759 64.1428 28.0753 63.0434 28.0753 61.6059V57.8006C28.0753 52.4732 31.7115 47.9066 36.6161 46.3845C32.8106 45.116 29.8509 41.9872 28.9208 38.0973Z" fill="#00BBD3"/>
<path d="M75.1768 38.0973C74.0774 36.9979 72.8936 36.1524 71.5406 35.3066C70.1876 36.8288 68.4963 38.0126 66.5513 38.6892C68.4117 39.2811 70.103 40.2113 71.4559 41.649C73.7391 43.9321 74.923 46.8919 74.923 50.1053V53.9106C74.923 55.3483 76.0223 56.4475 77.4598 56.4475C78.8973 56.4475 79.9966 55.3481 79.9966 53.9106V50.1053C80.0814 45.5389 78.3057 41.3107 75.1768 38.0973Z" fill="#00BBD3"/>
<path d="M54.4588 35.5604C53.275 36.237 52.1756 37.1672 51.2454 38.0973C50.3152 41.9872 47.3554 45.116 43.6348 46.3C44.9033 46.7228 46.1716 47.3147 47.4401 48.2449C47.6092 48.4985 47.8629 48.6677 48.1167 48.8368L48.2011 48.9213C48.3703 49.0905 48.5394 49.2596 48.7931 49.4287C50.9918 51.6274 52.1756 54.5871 52.1756 57.8005V61.6058C52.1756 63.0434 53.275 64.1426 54.7124 64.1426C56.1499 64.1426 57.2493 63.0433 57.2493 61.6058V57.8005C57.2493 53.2341 55.4735 49.0058 52.2601 45.7924C53.6131 42.4099 56.4037 39.873 59.7863 38.8582C57.6722 38.2664 55.8965 37.0826 54.4588 35.5604Z" fill="#00BBD3"/>
<path d="M8.62551 35.3913C3.46704 38.3511 0 43.8477 0 50.1053V53.9106C0 55.3483 1.09935 56.4475 2.53683 56.4475C3.9743 56.4475 5.07366 55.3481 5.07366 53.9106V50.1053C5.07366 44.7779 8.70984 40.2113 13.6145 38.6892C11.6698 38.0128 9.894 36.8288 8.62551 35.3913Z" fill="#00BBD3"/>
<path d="M40.0832 23.4679C33.4872 23.4679 28.1598 28.7953 28.1598 35.3913C28.1598 36.4906 28.2443 37.4208 28.4981 38.1819C29.4283 42.1564 32.4725 45.4544 36.447 46.8074C37.5464 47.1457 38.8149 47.3148 39.9987 47.3148C41.3517 47.3148 42.5355 47.1457 43.5504 46.7229C47.5249 45.4544 50.5691 42.241 51.4993 38.1821C51.6685 37.3365 51.8376 36.4063 51.8376 35.3914C52.0066 28.7953 46.6791 23.4679 40.0832 23.4679Z" fill="#4DCFE0"/>
<path d="M62.8306 15.8571C56.2347 15.8571 50.9072 21.1845 50.9072 27.7805C50.9072 30.6556 52.0066 33.5309 54.0361 35.8141C55.5583 37.5053 57.5032 38.6047 59.4482 39.1966C60.6321 39.4502 61.7314 39.6194 62.7463 39.6194C63.9301 39.6194 65.1986 39.4502 66.5516 39.0275C68.6657 38.3509 70.5261 37.0826 71.7946 35.5604C73.655 33.3617 74.6697 30.7402 74.6697 27.7806C74.754 21.1845 69.4266 15.8571 62.8306 15.8571Z" fill="#4DCFE0"/>
<path d="M17.251 15.8571C10.6551 15.8571 5.32764 21.1845 5.32764 27.7805C5.32764 30.6556 6.42699 33.3617 8.2874 35.5603C9.72504 37.2515 11.5855 38.4354 13.4457 38.9428C14.6296 39.3656 15.8136 39.5347 17.251 39.5347C18.5195 39.5347 19.7034 39.3656 20.8027 39.0273C22.7476 38.4354 24.5236 37.336 25.961 35.8139C27.9906 33.6152 29.0899 30.7401 29.0899 27.7803C29.1744 21.1845 23.847 15.8571 17.251 15.8571Z" fill="#4DCFE0"/>
</svg>
