<svg width="80" height="80" viewBox="0 0 80 80" fill="none" xmlns="http://www.w3.org/2000/svg">
<path d="M69.7246 80H1.29877C0.582283 80 0 79.5131 0 78.914V8.59186C0 7.99276 0.582283 7.50588 1.29877 7.50588H69.7246C70.441 7.50588 71.0233 7.99276 71.0233 8.59186V78.914C71.0233 79.5131 70.441 80 69.7246 80ZM2.59754 77.828H68.4258V9.67783H2.59754V77.828ZM78.7012 72.4959H69.7246C69.0081 72.4959 68.4258 72.009 68.4258 71.41C68.4258 70.8109 69.0081 70.324 69.7246 70.324H77.4025V2.17195H11.5742V8.59186C11.5742 9.19095 10.9919 9.67783 10.2754 9.67783C9.55896 9.67783 8.97668 9.19095 8.97668 8.59186V1.08597C8.97668 0.486878 9.55896 0 10.2754 0H78.7012C79.4177 0 80 0.486878 80 1.08597V71.41C80 72.009 79.4177 72.4959 78.7012 72.4959ZM29.5644 41.3538H8.9507C8.23421 41.3538 7.65193 40.867 7.65193 40.2679V34.3403C7.65193 29.6851 12.1825 25.8968 17.7499 25.8968H20.7674C26.3348 25.8968 30.8653 29.6851 30.8653 34.3403V40.2679C30.8631 40.867 30.2809 41.3538 29.5644 41.3538ZM10.2495 39.1819H28.2656V34.3403C28.2656 30.8833 24.9018 28.0688 20.7652 28.0688H17.7477C13.6133 28.0688 10.2473 30.8814 10.2473 34.3403C10.2495 34.3403 10.2495 39.1819 10.2495 39.1819ZM19.2586 28.0688C15.2541 28.0688 11.9963 25.3448 11.9963 21.9964C11.9963 18.648 15.2541 15.924 19.2586 15.924C23.2632 15.924 26.5209 18.648 26.5209 21.9964C26.5209 25.3448 23.2632 28.0688 19.2586 28.0688ZM19.2586 18.0959C16.687 18.0959 14.5939 19.8462 14.5939 21.9964C14.5939 24.1466 16.687 25.8968 19.2586 25.8968C21.8302 25.8968 23.9234 24.1466 23.9234 21.9964C23.9234 19.8462 21.8302 18.0959 19.2586 18.0959ZM19.2586 34.0941C18.9253 34.0941 18.5941 33.9873 18.3408 33.7756L12.7734 29.1204C12.2669 28.6968 12.2669 28.009 12.7734 27.5837C13.2799 27.1584 14.1025 27.1602 14.6112 27.5837L20.1786 32.2389C20.6851 32.6624 20.6851 33.3502 20.1786 33.7756C19.9232 33.9873 19.5898 34.0941 19.2586 34.0941ZM19.2586 34.0941C18.9253 34.0941 18.5941 33.9873 18.3408 33.7756C17.8343 33.352 17.8343 32.6643 18.3408 32.2389L23.9082 27.5837C24.4147 27.1602 25.2373 27.1602 25.746 27.5837C26.2525 28.0072 26.2525 28.695 25.746 29.1204L20.1786 33.7756C19.9232 33.9873 19.5898 34.0941 19.2586 34.0941ZM62.0726 37.2923H39.5692C38.8527 37.2923 38.2705 36.8054 38.2705 36.2063C38.2705 35.6072 38.8527 35.1204 39.5692 35.1204H62.0726C62.7891 35.1204 63.3714 35.6072 63.3714 36.2063C63.3714 36.8054 62.7891 37.2923 62.0726 37.2923ZM62.0726 29.7249H39.5692C38.8527 29.7249 38.2705 29.238 38.2705 28.6389C38.2705 28.0398 38.8527 27.5529 39.5692 27.5529H62.0726C62.7891 27.5529 63.3714 28.0398 63.3714 28.6389C63.3714 29.238 62.7891 29.7249 62.0726 29.7249ZM62.0726 22.1575H39.5692C38.8527 22.1575 38.2705 21.6706 38.2705 21.0715C38.2705 20.4724 38.8527 19.9855 39.5692 19.9855H62.0726C62.7891 19.9855 63.3714 20.4724 63.3714 21.0715C63.3714 21.6706 62.7891 22.1575 62.0726 22.1575ZM62.0726 64.0145H8.9507C8.23421 64.0145 7.65193 63.5276 7.65193 62.9285C7.65193 62.3294 8.23421 61.8425 8.9507 61.8425H62.0705C62.7869 61.8425 63.3692 62.3294 63.3692 62.9285C63.3692 63.5276 62.7891 64.0145 62.0726 64.0145ZM62.0726 71.5801H8.9507C8.23421 71.5801 7.65193 71.0932 7.65193 70.4941C7.65193 69.895 8.23421 69.4081 8.9507 69.4081H62.0705C62.7869 69.4081 63.3692 69.895 63.3692 70.4941C63.3692 71.0932 62.7891 71.5801 62.0726 71.5801ZM62.0726 56.4471H8.9507C8.23421 56.4471 7.65193 55.9602 7.65193 55.3611C7.65193 54.762 8.23421 54.2751 8.9507 54.2751H62.0705C62.7869 54.2751 63.3692 54.762 63.3692 55.3611C63.3692 55.9602 62.7891 56.4471 62.0726 56.4471ZM62.0726 48.8796H8.9507C8.23421 48.8796 7.65193 48.3928 7.65193 47.7937C7.65193 47.1946 8.23421 46.7077 8.9507 46.7077H62.0705C62.7869 46.7077 63.3692 47.1946 63.3692 47.7937C63.3692 48.3928 62.7891 48.8796 62.0726 48.8796Z" fill="url(#paint0_linear_34_286)"/>
<defs>
<linearGradient id="paint0_linear_34_286" x1="0.949404" y1="7.34769" x2="65.2224" y2="84.2151" gradientUnits="userSpaceOnUse">
<stop stop-color="#00DBDE"/>
<stop offset="1" stop-color="#FC00FF"/>
</linearGradient>
</defs>
</svg>
